<?xml version="1.0" standalone="no"?>
<!DOCTYPE svg PUBLIC "-//W3C//DTD SVG 20010904//EN"
 "http://www.w3.org/TR/2001/REC-SVG-20010904/DTD/svg10.dtd">
<svg version="1.0" xmlns="http://www.w3.org/2000/svg"
 width="600.000000pt" height="600.000000pt" viewBox="0 0 600.000000 600.000000"
 preserveAspectRatio="xMidYMid meet">
<metadata>
Created by potrace 1.11, written by Peter Selinger 2001-2013
</metadata>
<g transform="translate(0.000000,600.000000) scale(0.100000,-0.100000)"
fill="#000000" stroke="none">
<path d="M2693 5503 c12 -19 -55 -36 -80 -20 -6 4 -15 2 -19 -4 -5 -8 -3 -9 6
-4 9 5 11 4 6 -4 -6 -9 -14 -8 -34 5 -15 9 -24 13 -20 9 12 -13 -24 -32 -57
-31 -16 0 -36 -6 -43 -14 -12 -13 -13 -12 -8 5 5 17 3 16 -15 -5 -11 -14 -17
-19 -13 -11 6 11 3 13 -12 7 -10 -5 -31 -9 -46 -10 -15 -1 -36 -8 -46 -17 -13
-11 -24 -13 -35 -8 -10 6 -21 4 -32 -8 -9 -9 -34 -17 -54 -17 -22 -1 -45 -9
-56 -19 -11 -12 -20 -15 -24 -8 -4 7 -12 4 -20 -8 -8 -10 -21 -16 -31 -14 -11
3 -24 -5 -35 -19 l-17 -23 6 25 c3 14 3 19 0 13 -3 -7 -12 -13 -20 -13 -9 0
-13 -4 -10 -9 7 -11 -23 -25 -47 -22 -9 1 -20 -5 -23 -14 -5 -11 -10 -13 -19
-5 -10 8 -15 8 -21 -1 -5 -8 -3 -10 7 -5 8 4 6 1 -3 -7 -10 -8 -14 -18 -10
-23 4 -4 -1 -3 -10 4 -14 11 -20 10 -36 -6 -11 -11 -23 -18 -26 -15 -3 4 -6 1
-6 -7 0 -10 -4 -10 -17 1 -11 10 -14 10 -9 2 10 -18 -4 -39 -15 -22 -7 11 -9
11 -9 1 0 -7 -4 -10 -10 -7 -5 3 -7 0 -4 -8 3 -8 0 -18 -7 -23 -8 -4 -10 -3
-5 4 4 7 2 12 -3 12 -6 0 -11 -4 -11 -10 0 -5 -10 -14 -21 -21 -17 -9 -20 -8
-14 2 6 8 4 10 -4 5 -7 -5 -10 -14 -8 -20 3 -7 -1 -13 -9 -13 -7 0 -10 5 -7
11 4 6 0 5 -9 -1 -8 -7 -19 -9 -24 -5 -4 4 -2 -2 6 -12 14 -18 14 -19 -7 -7
-19 9 -22 9 -17 -2 3 -9 -3 -17 -16 -20 -15 -4 -19 -10 -14 -19 6 -10 3 -9
-10 1 -15 12 -17 12 -14 0 2 -8 -4 -13 -14 -13 -10 1 -15 -2 -12 -7 3 -5 1 -9
-4 -9 -15 0 -82 -57 -75 -64 3 -3 -2 -6 -11 -6 -12 0 -16 -5 -12 -15 3 -8 2
-14 -2 -13 -14 4 -52 -23 -46 -33 4 -8 0 -8 -13 0 -18 9 -20 7 -19 -12 1 -16
-4 -21 -17 -19 -10 2 -16 -3 -15 -10 2 -7 -3 -12 -9 -11 -11 3 -17 -9 -15 -28
1 -4 -6 -6 -16 -5 -9 0 -16 -5 -15 -11 2 -7 -1 -13 -5 -13 -13 0 -69 -50 -57
-50 6 0 2 -5 -8 -11 -9 -6 -15 -14 -12 -20 4 -5 -2 -6 -11 -2 -11 4 -15 3 -11
-5 4 -6 -7 -20 -24 -32 -17 -13 -28 -28 -25 -36 3 -9 -2 -14 -14 -14 -14 0
-18 -5 -13 -17 5 -12 3 -14 -7 -8 -10 6 -12 4 -7 -8 4 -12 2 -14 -10 -10 -12
5 -15 2 -10 -9 3 -10 -3 -23 -16 -35 l-22 -18 20 25 20 25 -22 -18 c-13 -12
-19 -25 -16 -35 5 -12 2 -14 -11 -9 -10 4 -15 3 -11 -3 3 -6 1 -10 -6 -10 -9
0 -9 -3 0 -14 9 -11 8 -14 -6 -12 -12 0 -17 -5 -16 -17 1 -14 -4 -18 -19 -14
-16 4 -17 3 -7 -9 10 -13 6 -18 -14 -15 -4 0 -6 -2 -6 -6 5 -28 -2 -45 -17
-39 -9 3 -12 2 -9 -5 4 -5 2 -16 -4 -23 -7 -8 -11 -18 -10 -22 4 -21 -2 -25
-18 -13 -15 13 -15 12 -4 -10 8 -15 9 -21 2 -17 -6 4 -11 2 -11 -4 0 -6 -4 -9
-9 -6 -5 3 -8 -2 -7 -12 0 -10 -5 -16 -14 -14 -10 1 -9 -2 4 -13 19 -15 19
-15 -5 -15 -19 0 -21 -2 -9 -10 13 -8 13 -10 -1 -10 -10 0 -16 -7 -15 -17 0
-10 -5 -17 -12 -15 -8 1 -11 -2 -8 -7 9 -15 -5 -42 -18 -34 -7 5 -7 2 1 -8 8
-9 9 -20 3 -29 -6 -8 -10 -10 -10 -5 0 6 -7 -3 -15 -18 -8 -16 -14 -34 -12
-40 1 -7 -4 -11 -11 -9 -14 2 -12 -19 3 -30 6 -5 5 -8 -3 -8 -7 0 -10 -5 -6
-12 4 -7 3 -8 -4 -4 -7 4 -12 2 -12 -4 0 -6 -5 -8 -12 -4 -9 5 -9 2 1 -9 8
-11 9 -17 3 -17 -6 0 -9 -6 -6 -14 3 -8 0 -17 -7 -22 -8 -5 -10 -3 -4 6 5 8 4
11 -2 7 -6 -4 -8 -17 -6 -31 3 -13 0 -27 -6 -30 -6 -4 -11 -2 -11 5 0 7 -2 10
-5 7 -10 -9 7 -38 19 -32 6 3 0 -4 -14 -15 -14 -11 -20 -21 -13 -21 13 0 12
-25 -2 -37 -4 -4 -5 -3 -1 4 3 6 1 15 -6 19 -7 4 -10 4 -6 0 4 -5 3 -19 -3
-33 -7 -18 -6 -22 4 -17 8 6 8 3 -1 -9 -8 -9 -11 -21 -7 -27 3 -5 -1 -10 -10
-10 -13 0 -14 -4 -4 -21 7 -15 8 -19 0 -15 -7 5 -10 -3 -7 -23 2 -19 -1 -28
-7 -24 -6 4 -8 -2 -5 -15 4 -14 2 -20 -5 -15 -6 4 -8 0 -4 -10 4 -10 1 -17 -6
-17 -8 0 -6 -4 3 -10 8 -5 10 -10 3 -10 -6 0 -10 -8 -9 -17 2 -10 -4 -21 -13
-25 -14 -6 -14 -7 2 -7 19 -1 24 -21 4 -21 -8 0 -12 -13 -11 -37 0 -21 -3 -46
-8 -57 -8 -14 -7 -17 3 -11 9 6 11 3 6 -9 -4 -10 -7 -20 -7 -22 0 -3 -3 -3 -7
-1 -5 3 -8 -5 -8 -18 0 -13 3 -21 7 -18 5 2 8 -3 8 -11 0 -10 -6 -13 -17 -10
-11 4 -14 3 -7 -3 6 -4 13 -18 16 -30 5 -17 2 -20 -11 -16 -13 5 -14 3 -3 -8
16 -17 16 -32 0 -23 -10 6 -10 4 0 -8 10 -13 10 -17 0 -22 -11 -5 -11 -7 0
-12 10 -5 10 -9 1 -20 -9 -11 -9 -14 1 -14 10 0 10 -3 0 -15 -9 -11 -9 -15 -1
-15 8 0 9 -5 1 -19 -7 -14 -7 -22 0 -26 7 -4 7 -12 2 -18 -10 -14 -10 -27 1
-44 5 -7 4 -13 -1 -13 -10 0 -9 -30 1 -47 4 -6 3 -14 -1 -17 -10 -6 -9 -42 1
-52 4 -4 1 -14 -6 -22 -8 -10 -8 -13 -1 -9 7 4 14 0 18 -8 3 -8 1 -15 -3 -15
-5 0 -12 -7 -15 -16 -5 -14 -4 -15 8 -5 11 9 16 9 22 0 4 -8 3 -9 -4 -5 -7 4
-12 1 -12 -9 0 -10 5 -13 12 -9 7 5 8 3 3 -7 -11 -16 -14 -49 -6 -49 9 0 7
-53 -3 -69 -6 -9 -5 -12 1 -8 6 4 14 0 17 -9 4 -10 2 -13 -7 -9 -6 4 -3 -1 7
-9 15 -12 16 -16 5 -16 -12 0 -12 -2 1 -10 13 -9 13 -10 0 -10 -12 0 -12 -2
-2 -9 8 -4 11 -19 8 -35 -4 -23 -3 -26 10 -16 17 15 19 -1 2 -18 -9 -9 -9 -12
1 -12 7 0 10 -4 6 -9 -3 -5 -2 -12 3 -15 5 -3 7 -19 6 -36 -1 -22 2 -30 10
-27 9 4 12 -6 11 -31 -1 -23 5 -42 15 -52 9 -8 10 -11 4 -7 -9 6 -11 2 -7 -12
3 -12 9 -18 14 -15 5 3 9 1 9 -5 0 -5 -6 -12 -12 -14 -10 -4 -10 -6 0 -6 7 -1
10 -6 6 -13 -5 -7 -2 -9 8 -6 8 4 15 1 15 -7 0 -7 -7 -11 -16 -8 -12 4 -12 1
2 -10 10 -8 18 -18 18 -21 -3 -21 1 -26 12 -20 7 5 6 0 -3 -11 -9 -11 -10 -16
-2 -11 7 4 12 1 12 -8 0 -29 1 -31 23 -43 12 -7 17 -12 11 -13 -7 0 -11 -11
-10 -24 0 -13 3 -23 6 -21 3 2 11 -3 18 -11 9 -10 10 -14 1 -14 -7 0 -3 -8 7
-17 17 -16 22 -27 27 -58 1 -5 9 -16 17 -23 8 -8 9 -11 3 -7 -17 8 -16 0 2
-18 8 -8 16 -21 17 -28 2 -8 11 -20 21 -27 14 -11 16 -17 6 -28 -10 -12 -8
-16 9 -21 12 -3 22 -12 22 -20 0 -8 5 -11 10 -8 5 3 10 -1 10 -10 0 -10 -5
-14 -12 -10 -7 4 -4 -1 6 -9 11 -9 16 -16 10 -17 -5 0 2 -5 16 -10 20 -8 22
-12 10 -19 -10 -7 -11 -10 -2 -10 6 0 12 -7 12 -16 0 -9 5 -12 12 -8 8 5 9 0
5 -15 -4 -18 -3 -20 9 -10 11 9 14 7 14 -10 0 -12 7 -24 16 -28 8 -3 13 -12
10 -20 -3 -8 -1 -11 4 -8 6 3 10 2 10 -2 0 -5 7 -18 15 -29 15 -19 15 -19 9 1
-3 12 1 9 11 -8 9 -15 13 -32 10 -37 -4 -6 -1 -9 7 -8 7 2 12 -3 10 -11 -3
-12 0 -12 13 -1 13 11 15 10 9 -4 -3 -9 -1 -16 5 -16 6 0 11 -8 11 -18 0 -27
11 -34 28 -19 11 8 14 8 9 0 -9 -14 2 -45 14 -37 5 3 9 0 9 -6 0 -6 11 -22 25
-36 14 -14 22 -30 19 -36 -4 -6 -2 -8 4 -5 14 9 43 -3 36 -14 -3 -5 0 -9 5 -9
6 0 11 -7 11 -16 0 -8 4 -12 10 -9 5 3 10 1 10 -5 0 -6 4 -8 10 -5 5 3 10 1
10 -4 0 -17 42 -61 57 -61 8 0 11 -4 8 -10 -3 -6 4 -10 17 -10 18 0 20 -2 8
-10 -12 -8 -11 -10 7 -10 11 0 33 -14 47 -31 14 -17 26 -27 26 -22 1 4 7 -3
15 -17 8 -14 15 -20 15 -15 0 6 10 -1 21 -15 11 -14 18 -19 14 -12 -9 18 10
15 26 -5 12 -14 12 -16 0 -8 -10 5 -12 4 -7 -3 4 -7 16 -12 27 -12 10 0 19 -4
19 -10 0 -5 7 -10 15 -10 8 0 19 -9 25 -21 7 -11 18 -18 25 -15 7 2 16 -2 19
-11 4 -9 13 -13 22 -9 12 5 15 2 10 -9 -3 -9 -2 -14 3 -11 5 3 14 -1 21 -9 7
-8 23 -15 36 -15 15 0 24 -6 24 -16 0 -11 6 -14 21 -9 16 5 19 4 14 -6 -6 -9
-3 -11 10 -5 15 5 16 4 6 -8 -10 -12 -9 -14 6 -11 10 1 23 -2 30 -7 7 -5 18
-6 25 -2 10 6 10 5 0 -8 -11 -14 -10 -16 7 -11 13 3 21 1 21 -8 0 -7 3 -10 6
-6 9 9 64 -21 64 -36 0 -8 4 -7 10 3 6 10 10 11 10 3 0 -7 5 -13 11 -13 5 0 7
5 3 12 -4 7 -3 8 4 4 7 -4 12 -13 12 -20 0 -8 13 -12 36 -11 20 0 38 -5 41
-11 2 -7 11 -15 19 -18 10 -4 13 -1 9 7 -4 6 1 3 9 -7 12 -15 16 -16 16 -5 1
11 3 10 10 -3 6 -10 18 -14 30 -11 11 3 20 0 20 -6 0 -5 7 -8 15 -5 8 4 15 1
15 -5 0 -6 7 -8 17 -4 10 4 14 2 10 -4 -3 -5 0 -10 8 -10 8 0 12 4 10 8 -3 4
4 5 15 2 17 -5 18 -8 8 -22 -11 -14 -11 -14 2 -5 8 6 24 14 34 18 15 5 17 4 8
-7 -11 -13 -3 -15 71 -18 9 0 17 -8 17 -17 0 -10 3 -13 8 -7 11 15 32 17 32 2
0 -8 4 -7 10 3 6 9 10 11 10 3 0 -7 7 -10 17 -6 10 4 14 2 9 -5 -3 -6 -2 -14
4 -17 6 -4 9 -1 8 6 -2 6 3 14 11 17 9 3 11 0 7 -7 -6 -8 0 -10 21 -6 21 5 24
4 13 -4 -13 -9 -13 -11 2 -11 9 0 19 8 21 18 4 16 5 16 6 0 1 -14 9 -17 41
-14 22 2 38 0 34 -5 -8 -13 10 -11 25 3 7 7 12 9 11 3 -2 -5 -2 -17 0 -25 1
-12 3 -11 8 2 6 16 10 16 33 4 21 -11 29 -11 43 0 21 15 49 8 39 -10 -4 -6 1
-5 10 3 9 7 17 10 17 5 0 -5 5 -2 10 6 8 13 10 12 10 -4 0 -14 3 -16 13 -7 8
6 17 8 21 4 11 -11 37 -12 30 -1 -4 6 2 5 15 -1 11 -7 21 -8 21 -3 0 10 42 8
59 -2 5 -4 12 -2 16 3 5 10 14 11 65 12 13 0 28 5 33 12 6 8 7 6 3 -5 -3 -10
-1 -18 4 -18 6 0 10 6 11 13 0 6 4 3 9 -8 7 -16 9 -16 9 -4 1 9 8 20 17 23 15
6 15 4 3 -10 -13 -16 -12 -16 7 -6 12 6 24 8 28 5 3 -3 6 -1 6 6 0 7 5 9 10 6
6 -4 8 -11 4 -16 -3 -6 3 -5 14 2 12 7 19 16 16 20 -2 4 9 4 26 -1 22 -6 34
-5 45 6 8 9 15 11 15 5 0 -6 5 -11 11 -11 5 0 8 4 5 9 -3 5 1 12 10 15 8 3 12
2 9 -4 -9 -15 49 -6 61 9 8 10 13 11 18 3 4 -7 13 -12 19 -12 7 0 6 4 -3 11
-12 8 -9 10 12 6 17 -2 29 1 32 10 4 10 10 11 25 3 15 -7 23 -6 35 6 9 8 16
12 16 7 0 -4 5 -1 10 7 9 13 11 13 20 0 8 -12 10 -12 10 -1 0 11 3 11 15 1 13
-11 14 -10 9 4 -5 12 -2 15 10 10 9 -3 16 -2 16 4 0 6 12 9 26 7 15 -1 28 3
31 11 3 8 9 14 15 14 5 0 6 -6 3 -12 -4 -7 0 -5 8 4 8 10 17 15 20 12 3 -3 17
2 31 11 14 10 26 13 26 9 0 -5 5 -2 10 6 6 10 10 11 10 3 0 -7 5 -13 11 -13 5
0 7 4 4 10 -3 5 1 10 9 10 9 0 16 6 16 13 0 9 2 9 8 0 6 -9 12 -7 22 7 16 22
36 28 24 7 -6 -8 -3 -8 9 1 9 8 22 10 28 6 8 -4 9 -3 5 4 -4 7 -2 12 3 12 6 0
10 5 8 12 -1 6 9 12 23 12 14 0 29 6 34 14 7 12 10 12 17 1 7 -11 9 -11 9 -1
0 8 5 10 13 6 6 -4 9 -3 4 1 -10 12 22 45 39 38 8 -3 14 0 14 5 0 6 9 9 21 7
16 -3 18 -1 10 9 -9 11 -6 13 14 10 21 -2 24 0 15 11 -10 11 -8 13 9 10 12 -2
21 1 21 7 0 5 7 7 16 4 15 -6 15 -4 3 11 -8 9 -9 14 -2 10 16 -10 44 3 36 16
-3 6 -1 7 5 3 6 -3 20 4 32 16 19 21 21 21 15 3 -6 -18 -5 -18 5 -2 6 9 8 23
4 30 -4 6 -4 9 1 5 4 -4 15 -2 24 4 13 10 14 10 4 -2 -7 -8 -13 -19 -13 -25 0
-5 8 2 18 18 10 15 22 24 27 20 4 -5 5 1 1 11 -5 16 -4 17 9 6 12 -10 15 -10
15 4 0 9 6 15 13 13 6 -1 11 5 11 14 -1 9 6 16 15 15 9 0 15 4 14 11 -2 8 4
10 14 6 11 -4 14 -3 9 5 -5 8 0 12 14 12 16 0 20 5 16 15 -3 9 0 15 8 15 7 0
19 11 26 25 7 13 17 22 22 19 11 -7 40 15 33 26 -3 4 5 10 16 13 12 3 18 10
14 17 -4 6 -1 9 7 8 7 -2 12 5 12 15 -2 14 1 15 12 6 13 -10 18 -6 15 13 0 4
13 16 29 28 18 12 30 30 30 43 0 16 3 18 9 9 6 -10 10 -8 14 8 3 12 10 19 16
15 6 -3 8 0 5 9 -3 9 3 17 16 21 12 4 19 9 16 12 -3 4 2 12 12 20 11 10 12 12
2 8 -8 -4 -6 1 5 10 11 9 19 21 18 26 -2 5 2 9 8 9 5 0 7 6 3 13 -6 8 -3 8 9
-1 14 -12 16 -11 12 7 -2 11 1 24 7 27 6 4 8 3 5 -3 -3 -5 0 -10 7 -10 8 0 11
8 8 20 -4 16 -2 19 13 13 16 -6 16 -4 4 11 -12 15 -12 16 3 10 13 -4 15 -2 11
10 -5 12 -3 14 8 8 11 -7 11 -5 -1 10 -14 17 -13 18 3 12 10 -4 17 -2 17 5 0
6 8 17 18 25 9 8 11 11 3 7 -9 -5 -7 2 5 18 10 14 24 23 29 20 6 -3 4 2 -4 12
-12 15 -12 17 0 14 9 -2 13 4 11 16 -2 12 1 16 9 10 9 -5 10 -2 6 10 -5 13 -3
17 7 13 10 -4 12 0 8 15 -4 16 -2 20 10 15 11 -4 15 0 14 11 -2 9 5 23 14 29
11 8 17 23 15 42 -2 23 1 28 13 23 11 -4 14 -1 9 11 -4 10 0 20 11 26 14 8 14
11 2 11 -12 0 -11 3 3 11 9 6 15 14 12 20 -4 5 -1 9 5 9 7 0 9 7 6 16 -4 10
-2 13 6 8 8 -5 9 -2 5 10 -4 10 -1 19 7 22 8 3 17 13 20 21 6 14 4 14 -11 2
-16 -12 -16 -11 0 8 11 12 16 27 11 34 -5 8 -2 11 8 7 8 -4 15 0 15 8 0 7 -5
11 -10 7 -5 -3 -2 6 7 19 9 14 13 28 9 33 -5 4 -1 6 7 3 13 -5 16 2 15 31 -1
38 13 81 30 93 6 5 4 8 -5 8 -12 1 -11 3 3 11 15 9 16 13 6 25 -7 8 -8 14 -3
13 21 -4 28 2 14 11 -10 6 -11 10 -2 10 6 0 12 5 12 11 0 5 -6 7 -12 3 -7 -4
-2 5 12 21 22 25 23 27 5 21 -16 -5 -16 -3 5 15 14 11 19 17 11 13 -11 -5 -13
-3 -8 11 4 9 2 24 -4 31 -10 12 -8 13 6 8 13 -5 16 -3 13 7 -3 8 2 23 11 34
15 18 15 19 -1 7 -15 -12 -17 -11 -15 7 0 11 5 17 11 14 5 -4 7 1 3 11 -6 14
-3 17 9 12 13 -5 14 -3 7 6 -13 17 -14 56 -2 63 5 4 7 11 3 16 -3 5 -1 15 5
22 7 9 7 17 -1 27 -8 12 -8 11 -3 -5 5 -17 4 -18 -7 -7 -11 12 -9 16 9 29 21
14 22 50 1 37 -7 -4 -7 0 0 12 5 11 8 29 6 42 -3 14 0 21 6 17 13 -8 8 17 -5
27 -6 5 -4 8 5 8 13 0 13 1 0 10 -13 9 -13 11 0 21 11 8 12 12 2 16 -6 2 -10
9 -6 14 8 13 11 109 4 109 -3 0 -6 9 -6 20 0 11 4 20 8 20 5 0 4 8 -1 18 -6
11 -6 24 -1 32 5 8 5 19 0 25 -5 6 -5 17 0 24 9 15 2 44 -9 37 -4 -3 -7 4 -7
14 0 11 6 16 16 13 8 -2 6 1 -5 8 -29 18 -29 17 -15 34 9 11 9 15 1 15 -8 0
-9 5 -1 19 6 12 6 22 1 25 -5 4 -8 18 -6 32 2 19 -1 24 -13 19 -14 -5 -14 -4
0 12 19 20 6 59 -15 46 -9 -5 -9 -3 0 8 10 12 10 18 1 27 -9 9 -9 12 2 12 9 0
8 4 -5 14 -17 12 -18 16 -5 32 9 11 10 15 3 10 -13 -7 -16 4 -17 67 0 17 -4
26 -12 23 -6 -2 -11 5 -10 17 1 12 -3 25 -9 29 -6 5 -4 8 4 8 11 0 9 4 -5 15
-19 15 -19 15 1 9 15 -4 13 -1 -5 10 -16 10 -19 15 -10 16 12 0 13 2 1 9 -7 5
-11 15 -9 22 3 8 -3 20 -12 29 -10 10 -11 12 -1 5 12 -8 13 -7 6 5 -4 8 -13
21 -19 29 -6 7 -12 25 -14 39 -2 15 -8 30 -14 33 -7 4 -5 9 3 12 8 3 3 6 -11
6 -19 1 -22 3 -11 10 12 8 12 12 2 25 -7 9 -10 23 -7 32 6 15 4 15 -11 3 -10
-7 -15 -9 -11 -5 4 5 2 16 -5 24 -9 13 -9 14 0 8 9 -5 11 -2 7 8 -3 9 -10 13
-15 10 -5 -3 -9 6 -9 20 0 14 -5 26 -11 26 -5 0 -7 5 -4 10 3 6 -1 10 -11 10
-13 0 -14 3 -4 15 9 10 9 15 1 15 -6 0 -11 5 -11 10 0 6 -9 21 -20 33 -11 12
-18 28 -15 35 4 10 0 12 -11 8 -14 -6 -15 -4 -4 9 7 9 9 15 4 14 -21 -4 -26 2
-14 16 10 12 8 14 -8 10 -14 -2 -19 1 -18 13 4 23 -16 43 -27 28 -6 -7 -7 -4
-3 7 7 21 -3 49 -15 41 -5 -3 -9 3 -9 13 -1 22 -23 53 -38 53 -7 0 -9 7 -5 17
4 11 3 14 -5 9 -7 -4 -12 -2 -12 6 0 17 -58 84 -70 81 -5 -2 -7 4 -4 12 4 9 0
15 -9 15 -9 0 -19 4 -22 10 -3 6 1 7 12 4 10 -3 6 2 -9 11 -16 8 -28 18 -28
21 0 3 6 2 13 -2 6 -4 3 2 -8 13 -11 11 -23 19 -27 16 -4 -2 -5 3 -2 11 7 19
-12 22 -20 4 -3 -7 -4 -5 -3 4 1 9 -7 24 -18 33 -11 9 -13 13 -5 9 8 -4 1 7
-17 25 -19 20 -36 30 -44 26 -7 -5 -10 -3 -7 6 5 16 -21 49 -39 49 -7 0 -13 7
-13 15 0 8 -5 15 -11 15 -5 0 -7 -5 -3 -12 5 -7 3 -8 -5 -4 -7 5 -10 14 -7 22
3 7 0 16 -6 20 -7 4 -8 3 -4 -4 4 -7 2 -12 -3 -12 -6 0 -11 7 -11 16 0 8 -4
13 -9 10 -5 -3 -12 1 -15 10 -3 9 -11 12 -18 8 -10 -6 -10 -4 0 8 11 14 10 16
-9 11 -15 -4 -20 -3 -15 5 4 7 1 12 -9 12 -9 0 -13 5 -10 10 3 6 1 10 -5 10
-6 0 -8 5 -4 13 5 8 2 8 -9 -2 -10 -8 -17 -9 -17 -3 0 18 -32 43 -47 38 -8 -3
-12 -2 -9 3 3 4 -7 19 -22 32 -22 19 -24 20 -12 4 11 -16 9 -15 -7 2 -24 25
-39 31 -27 11 5 -9 3 -9 -9 1 -9 7 -15 16 -13 20 1 3 -6 14 -17 24 -19 19 -19
18 -12 -3 7 -21 6 -21 -14 -3 -23 19 -28 28 -9 17 6 -4 8 -3 4 4 -3 6 -16 9
-27 7 -17 -4 -19 -2 -8 11 10 12 9 13 -5 8 -11 -4 -23 1 -32 12 -9 11 -13 12
-9 4 4 -9 1 -8 -8 3 -9 10 -18 18 -21 18 -21 -3 -26 1 -20 12 4 6 4 9 -1 5 -4
-4 -15 -2 -23 5 -13 10 -14 9 -7 -3 8 -13 6 -13 -8 -1 -9 7 -15 17 -12 21 3 5
-6 7 -20 6 -13 -2 -22 1 -19 5 3 5 -2 9 -10 9 -9 0 -16 4 -16 10 0 5 -3 9 -7
9 -22 -4 -33 2 -27 14 6 9 4 9 -8 -1 -14 -11 -18 -10 -28 8 -6 11 -15 18 -20
15 -12 -7 -62 13 -56 23 3 5 -1 9 -9 9 -8 0 -15 -5 -15 -11 0 -6 -4 -5 -9 3
-5 8 -16 11 -24 8 -10 -4 -14 -1 -11 7 3 8 -5 12 -26 10 -25 -2 -29 1 -20 11
9 11 7 12 -11 8 -16 -5 -20 -3 -14 6 6 10 3 11 -12 2 -15 -7 -25 -7 -39 3 -34
23 -82 36 -88 23 -2 -7 -5 -4 -5 7 -1 15 -4 16 -15 7 -11 -10 -17 -8 -25 6 -7
12 -10 13 -11 4 0 -11 -5 -10 -24 2 -18 12 -26 13 -36 4 -10 -9 -11 -9 -6 1 7
11 -17 17 -53 13 -7 -2 -10 2 -6 9 6 9 2 9 -15 0 -12 -7 -20 -8 -16 -2 3 5 -1
13 -10 16 -8 3 -13 2 -10 -3 3 -5 -1 -12 -10 -15 -8 -3 -13 -2 -10 3 3 5 -1
14 -9 21 -13 11 -14 10 -8 -6 6 -17 5 -17 -10 -6 -9 8 -21 11 -26 8 -5 -4 -12
-2 -16 4 -3 5 -18 7 -32 4 -16 -4 -28 -2 -34 7 -7 12 -9 12 -9 0 0 -11 -4 -10
-16 5 -8 10 -13 13 -9 6 5 -9 0 -11 -19 -8 -14 3 -30 7 -36 11 -5 3 -10 1 -10
-4 0 -6 -7 -11 -16 -11 -8 0 -12 5 -9 10 9 14 -8 13 -23 -2 -9 -9 -12 -9 -12
1 0 11 -3 11 -15 1 -12 -10 -15 -10 -15 0 0 9 -3 10 -13 1 -8 -6 -17 -8 -20
-4 -10 10 -87 11 -93 1 -3 -5 -12 -4 -19 2 -10 8 -15 8 -20 0 -5 -8 -11 -7
-23 2 -14 11 -15 10 -9 -7 6 -18 6 -19 -6 -3 -10 12 -17 14 -24 7 -8 -8 -13
-7 -17 0 -9 14 -26 14 -26 0 0 -5 6 -7 13 -3 6 4 9 3 4 -1 -4 -5 -18 -9 -31
-10 -19 0 -22 2 -14 12 7 9 7 13 0 13 -6 0 -17 -9 -25 -21 -11 -15 -16 -17
-20 -7 -4 11 -9 10 -28 -1 -22 -13 -23 -13 -11 2 10 12 10 17 1 23 -7 4 -9 3
-6 -3z m-523 -137 c0 -3 -4 -8 -10 -11 -5 -3 -10 -1 -10 4 0 6 5 11 10 11 6 0
10 -2 10 -4z m2821 -863 c13 -16 12 -17 -3 -4 -10 7 -18 15 -18 17 0 8 8 3 21
-13z m474 -1063 c3 -5 1 -10 -4 -10 -6 0 -11 5 -11 10 0 6 2 10 4 10 3 0 8 -4
11 -10z m35 -234 c0 -2 -7 -9 -15 -16 -13 -11 -14 -10 -9 4 5 14 24 23 24 12z
m-285 -1375 c3 -5 2 -12 -3 -15 -5 -3 -9 1 -9 9 0 17 3 19 12 6z m-2408 -1336
c0 -8 -4 -12 -9 -9 -4 3 -8 9 -8 15 0 5 4 9 8 9 5 0 9 -7 9 -15z"/>
<path d="M2205 5390 c-3 -6 1 -7 9 -4 18 7 21 14 7 14 -6 0 -13 -4 -16 -10z"/>
<path d="M5440 3540 c0 -5 5 -10 11 -10 5 0 7 5 4 10 -3 6 -8 10 -11 10 -2 0
-4 -4 -4 -10z"/>
<path d="M1395 1040 c10 -11 20 -20 23 -20 3 0 -3 9 -13 20 -10 11 -20 20 -23
20 -3 0 3 -9 13 -20z"/>
<path d="M4195 791 c-3 -5 -2 -12 3 -15 5 -3 9 1 9 9 0 17 -3 19 -12 6z"/>
</g>
</svg>
